<svg xmlns="http://www.w3.org/2000/svg" version="1.1" xmlns:xlink="http://www.w3.org/1999/xlink" xmlns:svgjs="http://svgjs.dev/svgjs" width="2000" height="186" viewBox="0 0 2000 186"><g transform="matrix(1,0,0,1,-1.2121212121212466,-0.8545421809674139)"><svg viewBox="0 0 396 37" data-background-color="#ecab55" preserveAspectRatio="xMidYMid meet" height="186" width="2000" xmlns="http://www.w3.org/2000/svg" xmlns:xlink="http://www.w3.org/1999/xlink"><g id="tight-bounds" transform="matrix(1,0,0,1,0.2400000000000091,0.16998957363330192)"><svg viewBox="0 0 395.52 36.66002085273342" height="36.66002085273342" width="395.52"><g><svg viewBox="0 0 443.6673764474049 41.122712561284864" height="36.66002085273342" width="395.52"><g transform="matrix(1,0,0,1,0,5.683385021132713)"><svg viewBox="0 0 395.52 29.755942519019438" height="29.755942519019438" width="395.52"><g id="textblocktransform"><svg viewBox="0 0 395.52 29.755942519019438" height="29.755942519019438" width="395.52" id="textblock"><g><svg viewBox="0 0 395.52 29.755942519019438" height="29.755942519019438" width="395.52"><g transform="matrix(1,0,0,1,0,0)"><svg width="395.52" viewBox="5.4 -35.3 473.17 35.599999999999994" height="29.755942519019438" data-palette-color="#ffffff"><path d="M20-35.3Q26.8-35.3 30.73-31.33 34.65-27.35 34.65-19.85L34.65-19.85 34.65 0 31 0 31-10.3 9-10.3 9 0 5.4 0 5.4-19.85Q5.4-27.35 9.33-31.33 13.25-35.3 20-35.3L20-35.3ZM9-13.5L31-13.5 31-20.2Q31-26.05 28.1-29.03 25.2-32 20-32L20-32Q14.8-32 11.9-29.03 9-26.05 9-20.2L9-20.2 9-13.5ZM70.4-35L74.1-35 74.1 0 70.55 0 70.55-5.9Q67.1 0.3 58.8 0.3L58.8 0.3Q52.55 0.3 49-3.45 45.45-7.2 45.45-14.15L45.45-14.15 45.45-35 49.15-35 49.15-14.25Q49.15-8.7 51.87-5.85 54.6-3 59.5-3L59.5-3Q64.65-3 67.52-6.03 70.4-9.05 70.4-15.1L70.4-15.1 70.4-35ZM95.15 0.3Q91.25 0.3 87.67-0.95 84.1-2.2 82.15-4.25L82.15-4.25 83.6-7.1Q85.5-5.2 88.65-4.03 91.8-2.85 95.15-2.85L95.15-2.85Q99.85-2.85 102.2-4.58 104.55-6.3 104.55-9.05L104.55-9.05Q104.55-11.15 103.27-12.4 102-13.65 100.15-14.33 98.3-15 95-15.8L95-15.8Q91.05-16.8 88.7-17.73 86.35-18.65 84.67-20.55 83-22.45 83-25.7L83-25.7Q83-28.35 84.4-30.53 85.8-32.7 88.7-34 91.6-35.3 95.9-35.3L95.9-35.3Q98.9-35.3 101.77-34.48 104.65-33.65 106.75-32.2L106.75-32.2 105.5-29.25Q103.3-30.7 100.8-31.43 98.3-32.15 95.9-32.15L95.9-32.15Q91.3-32.15 88.97-30.38 86.65-28.6 86.65-25.8L86.65-25.8Q86.65-23.7 87.92-22.43 89.2-21.15 91.12-20.48 93.05-19.8 96.3-19L96.3-19Q100.15-18.05 102.52-17.13 104.9-16.2 106.55-14.33 108.2-12.45 108.2-9.25L108.2-9.25Q108.2-6.6 106.77-4.42 105.35-2.25 102.4-0.98 99.45 0.3 95.15 0.3L95.15 0.3ZM139.24-31.45L137.89-28.55Q132.74-31.55 126.49-32L126.49-32 126.49 0 122.79 0 122.79-32Q116.64-31.6 111.34-28.55L111.34-28.55 109.99-31.45Q116.49-35.3 124.59-35.3L124.59-35.3Q132.84-35.3 139.24-31.45L139.24-31.45ZM159.19-31.8L152.09-31.8 152.09-3.2 159.19-3.2 159.19 0 141.34 0 141.34-3.2 148.44-3.2 148.44-31.8 141.34-31.8 141.34-35 159.19-35 159.19-31.8ZM182.49-35.3Q188.79-35.3 192.36-31.55 195.94-27.8 195.94-20.85L195.94-20.85 195.94 0 192.24 0 192.24-20.75Q192.24-26.3 189.49-29.15 186.74-32 181.79-32L181.79-32Q176.59-32 173.69-28.98 170.79-25.95 170.79-19.9L170.79-19.9 170.79 0 167.09 0 167.09-35 170.64-35 170.64-29.1Q173.99-35.3 182.49-35.3L182.49-35.3ZM220.13 0L220.13-35 223.83-35 223.83-3.2 243.43-3.2 243.43 0 220.13 0ZM263.88-35.3Q270.68-35.3 274.61-31.33 278.53-27.35 278.53-19.85L278.53-19.85 278.53 0 274.88 0 274.88-10.3 252.88-10.3 252.88 0 249.28 0 249.28-19.85Q249.28-27.35 253.21-31.33 257.13-35.3 263.88-35.3L263.88-35.3ZM252.88-13.5L274.88-13.5 274.88-20.2Q274.88-26.05 271.98-29.03 269.08-32 263.88-32L263.88-32Q258.68-32 255.78-29.03 252.88-26.05 252.88-20.2L252.88-20.2 252.88-13.5ZM311.68-18.05Q315.13-17.3 317-15.08 318.88-12.85 318.88-9.35L318.88-9.35Q318.88-4.85 315.55-2.43 312.23 0 305.73 0L305.73 0 289.63 0 289.63-35 304.73-35Q310.58-35 313.8-32.65 317.03-30.3 317.03-26L317.03-26Q317.03-23.1 315.6-21.08 314.18-19.05 311.68-18.05L311.68-18.05ZM304.48-31.95L293.33-31.95 293.33-19.25 304.48-19.25Q308.73-19.25 311.03-20.88 313.33-22.5 313.33-25.6L313.33-25.6Q313.33-28.7 311.03-30.33 308.73-31.95 304.48-31.95L304.48-31.95ZM305.68-3.05Q310.38-3.05 312.78-4.65 315.18-6.25 315.18-9.65L315.18-9.65Q315.18-16.2 305.68-16.2L305.68-16.2 293.33-16.2 293.33-3.05 305.68-3.05ZM341.63-35.3Q348.43-35.3 352.35-31.33 356.28-27.35 356.28-19.85L356.28-19.85 356.28 0 352.63 0 352.63-10.3 330.63-10.3 330.63 0 327.03 0 327.03-19.85Q327.03-27.35 330.95-31.33 334.88-35.3 341.63-35.3L341.63-35.3ZM330.63-13.5L352.63-13.5 352.63-20.2Q352.63-26.05 349.73-29.03 346.83-32 341.63-32L341.63-32Q336.43-32 333.53-29.03 330.63-26.05 330.63-20.2L330.63-20.2 330.63-13.5ZM367.37 0L367.37-35 381.62-35Q387.17-35 391.42-32.77 395.67-30.55 398.02-26.58 400.37-22.6 400.37-17.5L400.37-17.5Q400.37-12.4 398.02-8.43 395.67-4.45 391.42-2.23 387.17 0 381.62 0L381.62 0 367.37 0ZM371.07-3.2L381.42-3.2Q386.02-3.2 389.47-5.03 392.92-6.85 394.82-10.08 396.72-13.3 396.72-17.5L396.72-17.5Q396.72-21.7 394.82-24.93 392.92-28.15 389.47-29.98 386.02-31.8 381.42-31.8L381.42-31.8 371.07-31.8 371.07-3.2ZM423.97 0.3Q418.77 0.3 414.55-2.02 410.32-4.35 407.95-8.4 405.57-12.45 405.57-17.5L405.57-17.5Q405.57-22.55 407.95-26.6 410.32-30.65 414.55-32.98 418.77-35.3 423.97-35.3L423.97-35.3Q429.17-35.3 433.35-33 437.52-30.7 439.92-26.63 442.32-22.55 442.32-17.5L442.32-17.5Q442.32-12.45 439.92-8.38 437.52-4.3 433.35-2 429.17 0.3 423.97 0.3L423.97 0.3ZM423.97-3Q428.12-3 431.47-4.88 434.82-6.75 436.72-10.08 438.62-13.4 438.62-17.5L438.62-17.5Q438.62-21.6 436.72-24.93 434.82-28.25 431.47-30.13 428.12-32 423.97-32L423.97-32Q419.82-32 416.45-30.13 413.07-28.25 411.15-24.93 409.22-21.6 409.22-17.5L409.22-17.5Q409.22-13.4 411.15-10.08 413.07-6.75 416.45-4.88 419.82-3 423.97-3L423.97-3ZM478.57 0L474.52 0 466.52-11.25Q465.17-11.1 463.72-11.1L463.72-11.1 454.32-11.1 454.32 0 450.62 0 450.62-35 463.72-35Q470.42-35 474.22-31.8 478.02-28.6 478.02-23L478.02-23Q478.02-18.9 475.94-16.07 473.87-13.25 470.02-12L470.02-12 478.57 0ZM463.62-14.25Q468.82-14.25 471.57-16.55 474.32-18.85 474.32-23L474.32-23Q474.32-27.25 471.57-29.53 468.82-31.8 463.62-31.8L463.62-31.8 454.32-31.8 454.32-14.25 463.62-14.25Z" opacity="1" transform="matrix(1,0,0,1,0,0)" fill="#000000" class="wordmark-text-0" data-fill-palette-color="primary" id="text-0"></path></svg></g></svg></g></svg></g></svg></g><g transform="matrix(1,0,0,1,402.54466388612,0)"><svg viewBox="0 0 41.122712561284864 41.122712561284864" height="41.122712561284864" width="41.122712561284864"><g data-palette-color="#ffffff"><rect width="11.24020810008453" height="41.122712561284864" fill="#000000" stroke="transparent" data-fill-palette-color="accent" x="0" fill-opacity="1"></rect><rect width="11.24020810008453" height="41.122712561284864" fill="#000000" stroke="transparent" data-fill-palette-color="accent" x="13.707570853761622" fill-opacity="0.75"></rect><rect width="11.24020810008453" height="41.122712561284864" fill="#000000" stroke="transparent" data-fill-palette-color="accent" x="27.415141707523244" fill-opacity="0.5"></rect></g></svg></g></svg></g><defs></defs></svg><rect width="395.52" height="36.66002085273342" fill="none" stroke="none" visibility="hidden"></rect></g></svg></g></svg>